# xmcd
#
# Track frame offsets: 
#        150
#        23173
#        67080
#        85325
#        100630
#        127679
#        146071
#        165990
#        182917
#        205329
#        231987
#
# Disc length: 3477 seconds
#
# Revision: 0
# Processed by: cddbd v1.5.2PL0 Copyright (c) Steve Scherf et al.
# Submitted via: ExactAudioCopy v0.95a5
#
DISCID=910d930b
DTITLE=Cream - Macrocosm Disc 3
DYEAR=2005
DGENRE=Rock
TTITLE0=I'm So Glad
TTITLE1=Spoonful
TTITLE2=Outisde Woman Blues
TTITLE3=Pressed Rat And Warthog
TTITLE4=Sleepy Time, Time
TTITLE5=Tales Of Brave Ulysses
TTITLE6=N.S.U.
TTITLE7=Badge
TTITLE8=Politician
TTITLE9=Sweet Wine
TTITLE10=Rollin' and Tumblin'
EXTD=
EXTT0=
EXTT1=
EXTT2=
EXTT3=
EXTT4=
EXTT5=
EXTT6=
EXTT7=
EXTT8=
EXTT9=
EXTT10=
PLAYORDER=
